<?xml version="1.0" encoding="UTF-8"?>
<svg version="1.1" xmlns="http://www.w3.org/2000/svg" width="700" height="700">
<path d="M0 0 C1.15193848 0.26232422 2.30387695 0.52464844 3.49072266 0.79492188 C44.42065873 10.15867628 80.53539103 27.98818307 111 57 C112.05960938 57.98033203 112.05960938 57.98033203 113.140625 58.98046875 C140.39874068 84.96432292 156.48087908 121.98491321 165 158 C165.29148926 159.23000732 165.29148926 159.23000732 165.58886719 160.48486328 C166.92859052 166.29150012 168.03333342 172.1202532 169 178 C169.15098145 178.91007813 169.30196289 179.82015625 169.45751953 180.7578125 C173.99076211 209.47323904 174.07647969 240.373516 169 269 C168.72591309 270.59618164 168.72591309 270.59618164 168.44628906 272.22460938 C163.38625422 300.75689122 153.97153396 328.11936449 141 354 C140.58927246 354.83096191 140.17854492 355.66192383 139.75537109 356.51806641 C125.96232852 384.2652463 108.07572698 409.58951795 88 433.125 C87.56228271 433.63836914 87.12456543 434.15173828 86.67358398 434.68066406 C77.74705902 445.02422483 68.32047355 454.84356337 58.64672852 464.48364258 C56.80041754 466.32454708 54.95957727 468.17080272 53.11914062 470.01757812 C47.24871438 475.89160546 41.35678496 481.64754491 35 487 C33.91628091 487.94859603 32.83420579 488.89907398 31.75390625 489.8515625 C23.46998922 497.076478 14.8840979 503.82133365 6.09521484 510.41943359 C4.1217445 511.90815965 2.16248923 513.41351265 0.20703125 514.92578125 C-43.22464871 548.31780696 -43.22464871 548.31780696 -55 550 C-57.25 549.5625 -57.25 549.5625 -59 549 C-59 548.34 -59 547.68 -59 547 C-59.88792236 546.73227783 -60.77584473 546.46455566 -61.69067383 546.1887207 C-64.81816529 545.06531562 -67.18767267 543.80239253 -69.94921875 541.98046875 C-70.87049561 541.3767041 -71.79177246 540.77293945 -72.7409668 540.15087891 C-73.71332275 539.50296387 -74.68567871 538.85504883 -75.6875 538.1875 C-76.70046143 537.51895996 -77.71342285 536.85041992 -78.75708008 536.16162109 C-81.844793 534.11765233 -84.9241259 532.06173444 -88 530 C-88.90234375 529.39526855 -89.8046875 528.79053711 -90.734375 528.16748047 C-100.35618806 521.69644672 -109.81285716 515.07778501 -119 508 C-120.07643292 507.18047707 -121.15327083 506.36148588 -122.23046875 505.54296875 C-128.51300379 500.75552966 -134.68178654 495.86083017 -140.7578125 490.8125 C-143.06751023 488.88877434 -143.06751023 488.88877434 -146 487 C-146 486.34 -146 485.68 -146 485 C-146.81984375 484.65775391 -146.81984375 484.65775391 -147.65625 484.30859375 C-150.70136278 482.60840578 -152.95459919 480.44710264 -155.5 478.0625 C-156.57660041 477.05835514 -157.65342946 476.05445536 -158.73046875 475.05078125 C-159.27622559 474.5398291 -159.82198242 474.02887695 -160.38427734 473.50244141 C-162.83494221 471.22359711 -165.3282972 468.99216951 -167.8125 466.75 C-177.09844904 458.28034706 -186.30356355 449.47648685 -194.4140625 439.86328125 C-196.30191407 437.64528815 -198.27702792 435.51757845 -200.25 433.375 C-205.38499574 427.68888887 -210.04712074 421.669594 -214.73486328 415.61621094 C-216.45268773 413.42169186 -218.22878845 411.27653304 -220 409.125 C-225.40592132 402.36759835 -230.20929454 395.19970006 -235 388 C-235.47453613 387.29262695 -235.94907227 386.58525391 -236.43798828 385.85644531 C-268.5066435 337.758896 -287.50708014 281.77233557 -287.375 223.8125 C-287.37445618 222.90468781 -287.37391235 221.99687561 -287.37335205 221.06155396 C-287.22600538 167.10614866 -272.90577326 110.54810906 -237 69 C-236.30648437 68.19691406 -235.61296875 67.39382812 -234.8984375 66.56640625 C-232.6374529 64.00582122 -230.33195601 61.49607076 -228 59 C-227.20207031 58.13632812 -226.40414062 57.27265625 -225.58203125 56.3828125 C-197.38065207 26.94415647 -157.5035151 9.26219718 -118.18017578 0.69677734 C-116.08306585 0.23730001 -113.99001183 -0.24115557 -111.90185547 -0.73974609 C-76.49649932 -9.05011671 -35.29577772 -8.56234668 0 0 Z M-159.3203125 115.28125 C-163.57036155 119.59325312 -167.35391058 124.17158644 -171 129 C-171.59167969 129.77601563 -172.18335938 130.55203125 -172.79296875 131.3515625 C-194.99027221 161.72681986 -204.18095298 199.46350836 -199.17993164 236.74316406 C-194.94395775 263.4818697 -183.82509264 288.52925354 -166 309 C-165.19175781 309.95261719 -164.38351563 310.90523437 -163.55078125 311.88671875 C-156.81727247 319.65239861 -149.34434846 326.02041879 -141 332 C-140.44473633 332.39815918 -139.88947266 332.79631836 -139.31738281 333.20654297 C-108.44228368 354.95406554 -70.16852561 363.03561657 -33 357 C-7.38555546 352.18507557 14.74352612 341.18578042 35 325 C35.93714844 324.25621094 36.87429688 323.51242187 37.83984375 322.74609375 C39.70041405 321.2421608 41.43640693 319.81047618 43 318 C43 317.34 43 316.68 43 316 C43.66 316 44.32 316 45 316 C48.20488731 312.50791301 51.05889953 308.71533056 54 305 C54.59296875 304.29488281 55.1859375 303.58976563 55.796875 302.86328125 C79.08779364 274.63690604 87.67422003 237.14625358 84.77734375 201.24023438 C81.64842993 171.55962231 69.59854371 144.46125235 50 122 C49.39414062 121.27296875 48.78828125 120.5459375 48.1640625 119.796875 C44.14761073 115.03528965 39.82299789 110.93582437 35 107 C34.06414062 106.2265625 33.12828125 105.453125 32.1640625 104.65625 C14.09899952 90.05087884 -6.49766401 81.18743755 -29 76 C-29.94875 75.76410156 -30.8975 75.52820313 -31.875 75.28515625 C-78.13277455 65.12920254 -125.8336015 83.70028678 -159.3203125 115.28125 Z " fill="#2B2A30" transform="translate(408,5)"/>
<path d="M0 0 C1.90404122 2.05233103 3.49700768 3.99787441 5.125 6.25 C6.09160428 7.53286955 7.0604117 8.81408164 8.03125 10.09375 C8.52238281 10.74601562 9.01351562 11.39828125 9.51953125 12.0703125 C11.79823921 15.040449 14.19753473 17.90098091 16.625 20.75 C17.08197266 21.2869751 17.53894531 21.8239502 18.00976562 22.37719727 C23.06726786 28.28756513 28.28023398 34.056009 33.55859375 39.76953125 C34.79802734 41.12111328 34.79802734 41.12111328 36.0625 42.5 C36.81660156 43.3146875 37.57070312 44.129375 38.34765625 44.96875 C40 47 40 47 40 49 C39.28682617 49.28085449 38.57365234 49.56170898 37.83886719 49.85107422 C-7.11139397 66.89340781 -7.11139397 66.89340781 -41.0234375 99.4921875 C-42.22327821 102.57337844 -42.15057234 103.91370081 -41 107 C-14.34396234 140.9659676 52.25325627 146.86672939 91.78363037 151.73895264 C98.48980123 152.52881557 105.21117102 153.15990271 111.9375 153.75 C112.94904144 153.83874893 112.94904144 153.83874893 113.98101807 153.92929077 C118.65127031 154.331083 123.32370478 154.67874108 128 155 C128.67756348 155.0483902 129.35512695 155.0967804 130.05322266 155.14663696 C145.89331541 156.24636168 161.75471769 156.19944748 177.625 156.1875 C178.32894394 156.18738041 179.03288788 156.18726082 179.75816345 156.1871376 C203.88786739 156.18195941 227.92245782 155.68427132 252 154 C253.52180508 153.89706418 255.04361499 153.7941997 256.56542969 153.69140625 C346.46220403 149.48178907 346.46220403 149.48178907 423.296875 109.63671875 C425.39612626 106.38673114 425.58093073 104.80558861 425 101 C412.01595113 76.15621934 378.57349606 62.9316295 354.48730469 52.13378906 C351.61805964 50.82589998 348.80259816 49.4443424 346 48 C348.90054077 44.61223925 351.80253887 41.22585104 354.71875 37.8515625 C370.66449852 19.55119635 370.66449852 19.55119635 385 0 C422.56835036 6.41829494 464.75467889 27.22103302 487.63671875 58.61328125 C488.42926625 59.7388319 489.21730163 60.86757823 490 62 C490.66644531 62.96292969 491.33289063 63.92585938 492.01953125 64.91796875 C503.33454582 82.79026845 507.41493338 105.96447582 502.8215332 126.64819336 C500.91711743 134.04390294 498.28830119 141.11481803 495 148 C494.57074219 148.89976562 494.14148438 149.79953125 493.69921875 150.7265625 C466.97205978 202.9762761 401.46082502 229.90361511 349 247 C319.09199164 256.36622379 288.13552868 262.54797017 257 266 C255.93563217 266.12920334 255.93563217 266.12920334 254.84976196 266.26101685 C237.63562381 268.32248803 220.41839125 268.34213976 203.10961914 268.31567383 C199.84775914 268.31106805 196.58627433 268.31788359 193.32446289 268.33618164 C171.03418486 268.45991658 149.15499135 267.52208288 127 265 C126.0682193 264.89531403 125.1364386 264.79062805 124.17642212 264.68276978 C119.29167284 264.12214803 114.42683577 263.46937579 109.5625 262.75 C108.512332 262.59709503 108.512332 262.59709503 107.44094849 262.44110107 C63.27750991 255.96955414 18.49828113 245.11646047 -22 226 C-22.89187012 225.58282715 -23.78374023 225.1656543 -24.70263672 224.73583984 C-45.88790799 214.74125024 -65.84276119 202.77762064 -83.0390625 186.75 C-84.88625493 184.94775592 -84.88625493 184.94775592 -87 184 C-87 183.34 -87 182.68 -87 182 C-87.81210938 181.70029297 -87.81210938 181.70029297 -88.640625 181.39453125 C-91.99055384 179.41452364 -94.26752459 176.62635047 -96.75 173.6875 C-97.54506958 172.74861938 -97.54506958 172.74861938 -98.35620117 171.79077148 C-115.9226391 150.61453587 -124.29121679 126.44345821 -122 99 C-118.96200019 73.31413353 -102.3554176 52.09936604 -83 36 C-63.5043751 20.98553591 -40.7236317 10.7664488 -17.5625 2.875 C-16.39468994 2.4720874 -15.22687988 2.0691748 -14.02368164 1.65405273 C-12.92403076 1.29126221 -11.82437988 0.92847168 -10.69140625 0.5546875 C-9.71373291 0.22968262 -8.73605957 -0.09532227 -7.72875977 -0.43017578 C-4.71153036 -1.06023872 -2.91497714 -0.97052502 0 0 Z " fill="#2B2A30" transform="translate(159,432)"/>
<path d="M0 0 C18.57213944 17.98129079 29.26763729 43.38083771 29.96142578 69.06420898 C30.20485074 99.12936477 19.9467593 124.68880808 -1.07373047 146.44140625 C-19.91260636 165.24423263 -45.64910286 174.62111827 -72.01123047 174.69140625 C-100.25043333 174.66160009 -124.92765961 164.06814443 -145.13623047 144.31640625 C-163.87950032 125.47447524 -173.92953574 99.93293469 -173.88623047 73.44140625 C-173.81471486 50.98550629 -168.19149305 30.54537991 -154.51123047 12.44140625 C-153.81126953 11.508125 -153.11130859 10.57484375 -152.39013672 9.61328125 C-134.62211454 -13.06390927 -109.6700876 -25.80613191 -81.26123047 -29.30859375 C-50.50248102 -31.42833162 -22.46417139 -20.82564168 0 0 Z " fill="#2B2A30" transform="translate(422.51123046875,146.55859375)"/>
</svg>
